<?xml version="1.0" encoding="utf-8"?>
<!-- Generator: Adobe Illustrator 24.1.0, SVG Export Plug-In . SVG Version: 6.00 Build 0)  -->
<svg version="1.1" id="圖層_1" xmlns="http://www.w3.org/2000/svg" xmlns:xlink="http://www.w3.org/1999/xlink" x="0px" y="0px"
	 viewBox="0 0 121.2 109.7" enable-background="new 0 0 121.2 109.7" xml:space="preserve">
<g id="圖層_2_1_">
	<g id="圖層_1-2">
		<path d="M97,42.5C84.3,55.3,69.5,65.8,53.2,73.4c-4.6,2.2-9.3,4.1-14.1,5.8l1.2,0.2c-1.9-1.4-0.9-4.5,0.5-5.8c2-2,5-3,7.6-4
			c6-2.3,12.4-4.3,18.9-4.6c3.1-0.2,6.2,0.1,9.2,0.8c3,0.8,5.7,2.3,8.7,2.9c5.2,1,10.4-1.1,13.5-5.3c3.2-4.3,2.6-10.1-0.3-14.4
			c-3.3-4.8-8.6-7.4-14.2-8.2c-6.2-0.9-12.6,0.2-18.6,1.7c-6.2,1.5-12.2,3.8-17.9,6.7c-2.5,1.3-6.3,2.7-7.2,5.7
			c-1.1,3.5,2.8,5.3,5.2,6.8l20.6,12.3v-2.6c-6.4,2.9-13.1,4.8-20,5.8L47,80c2.9-0.5,5.8,0.6,7.6,2.8l0.9-2.2
			c-8.7,1.7-18-3.3-22-11.1c-1-1.9-1.6-3.9-1.8-6c-0.1-1.1-0.2-2.3,1-2.8c1.1-0.3,2.3-0.3,3.4-0.2c4.7,0.4,9.2,2.1,13,4.8
			c4.3,3,7.6,7.2,9.4,12.2l0.7-1.7c-5.6,3.4-12.4,4.4-18.8,2.8l0.6,2.5c3.1-2.6,6.9-4.1,10.7-5.3c4.3-1.4,8.7-3,13.1-3.4
			c4-0.4,8,0,11.4,2.4c2.7,1.9,4.9,5.1,4.3,8.5c-0.2,1.2,1,2.5,2.2,1.7c7.9-5.2,14.4-12.4,18.7-20.9c3.6-7.3,5.4-18.2-3.3-22.8
			c-3.8-1.9-8.1-2.2-12.1-0.9c-4.3,1.5-8.1,4.2-10.9,7.8c-5.9,7.6-9.9,16.5-11.6,26c-2,10.7-1.2,21.8,2.3,32.2l1-1.8
			c-8.7,2.8-18.2,2.6-26.8-0.5l0.3,2.7c3.3-2.1,7.1-3.3,11-3.5c0.8,0,1.5-0.7,1.5-1.6c0-0.1,0-0.2,0-0.3C52,96.3,50.8,89.7,53.9,85
			c3.9-6.2,12.3-3.9,17.4-0.9c3.7,2.2,7.2,4.8,11.1,6.6l0.8-2.8l-21,2.3c-1,0.1-2.1,1.2-1.3,2.3c5,6.4,13.5,8.6,21,5.6
			c7.1-3,11.7-11.7,9.6-19.2c-0.6-1.9-3.7-2.4-5.4-2.7c-2.1-0.3-4.2-0.3-6.3,0c-4.4,0.6-8.6,2.3-12.7,4c-4.3,1.8-8.6,3.7-13.2,4.6
			c-5.3,0.9-10.8,0.9-16.1-0.1c-6-1-11.9-2.6-17.8-4.2L1.9,75.8l0.4,2.7c11.7-6.7,25.5-7.4,38.7-7.3c7,0.1,14.4,0,21.1,2.3
			c5.3,1.8,10.7,5.8,12.1,11.5c0.4,1.5,0.4,3.2-1.2,4c-1.8,0.7-3.7,1.2-5.6,1.4c-4.2,0.7-8.5,1-12.8,0.8l0.8,2.8l4.5-2.8
			c0.7-0.4,0.9-1.3,0.5-2c-3.2-5.9-7.3-13-5.9-20c1-5.3,5.3-10.5,11.1-10.2v-3c-10.2,0.6-17.4-9.4-17.8-18.8
			c-0.6-12,9-21.8,17.6-28.7c1.2-0.9,2.3-1.8,3.5-2.7c1.3-1.1,2.7-1.9,4.2-2.6c2.3-0.7,4.8,0.3,6,2.4c3.5,5.3-0.4,10.9-3.7,15.2
			c-3.7,4.9-8.2,10.8-6.3,17.3c1.3,4.5,5.1,7.7,8.1,11c1.5,1.7,3.1,3.5,3.6,5.8c0.5,2.1-0.3,4.4-2.1,5.7c-2,1.4-4.4,2.1-6.9,2.2
			c-2.7,0.2-5.5,0-8.2-0.5l1.1,1.5c0.4-14,11.5-24.6,22.1-32.4c3.2-2.4,6.6-4.6,10-6.8c1.4-0.9,0.5-3.3-1.2-2.8
			c-15.3,4.9-31,8.4-46.9,10.5c-4.5,0.6-9,1-13.5,1.4l0.4,3c6.8-2.4,14.3-1.3,20.8,1.7s12,7.9,17.1,12.9c3.9,3.9,11.7,10.4,5.9,16
			c-2.3,2.1-5.4,3.4-8.3,4.7c-3.5,1.6-7.1,2.9-10.8,4.1c-8.3,2.8-16.9,4.7-25.6,5.8l1.3,2.3c2.3-4.9,6.9-8.3,12.3-9.2
			c1.7-0.3,1.3-3-0.4-3c-15.1,0.2-30.2,0.6-45.3,1.2l0.4,3c17.8-6,35.8-11.1,54.1-15.2c0.8-0.2,1.2-1.1,1-1.9c-0.1-0.5-0.5-0.9-1-1
			c-12.8-3.9-25.6-7.7-38.3-11.6c-2.1-0.6-4.4-1.5-5.8-3.2s-0.7-3.6,1.1-4.8c2.3-1.2,4.8-2.1,7.4-2.5c9.2-1.8,18.8-0.4,27.1,3.9
			l-0.3-2.4c-4.1,4.1-8.8,7.4-14,9.8c-0.7,0.4-0.9,1.3-0.5,2l3.5,6.2l0.2-1.8c-2,1.7-4.9,1.8-7.1,0.4L30.2,57
			c11.1-4.4,23-6.6,35-6.5c3,0.1,6,0,9-0.3c3-0.4,5.9-1.2,8.7-2.3c5.5-2.2,11.1-4,16.9-5.4c6.5-1.5,13.2-2.4,19.9-2.5l-0.4-2.9
			c-9,2-19.3-3.8-21.6-12.8L95,25.3c1.8,4,2.1,8.6,0.8,12.8c-0.2,0.5,0,1.1,0.4,1.5c1.8,1.6,4.3,2.2,6.6,1.6c0.8-0.2,1.3-1.1,1-1.9
			c-0.1-0.3-0.3-0.6-0.6-0.8c-11-5.6-22.5-10.1-34.4-13.4l1,1.8c0,0,0.2,0,0.1-0.1l2.4-1.8c-3.3-4.1-4.3-9.7-2.4-14.7
			c0.2-0.8-0.2-1.6-1-1.9C63.6,7.2,58,8.7,54,12.5c-0.6,0.6-0.6,1.5,0,2.1c2.9,2.6,3.4,6.6,2.4,10.2c-1.2,4.2-4.5,7.6-7.7,10.5
			C41.1,42.3,33.2,49.1,25.4,56L11.8,68.1l2.5,1.5c3.4-10.1,8.2-22.5,19.5-25.8c1.1-0.3,1.6-2.2,0.4-2.7c-6.7-3-13.8-4.8-21.1-5.1
			l0.4,3c3.9-1.4,8-2,12.1-1.6c2,0.1,3.9,0.6,5.7,1.3c1.6,0.7,2.7,2.3,2.7,4c0,1.8-0.2,3.6-0.5,5.3c-0.3,2.1-0.6,4.2-0.9,6.2
			c-0.6,4.2-1,8.5-1.2,12.7c-0.6,8.4,0.3,16.9,2.6,25c1.1,3.6,2.7,6.6,6.6,7.7c1.8,0.4,3.6,0.7,5.4,0.8c1.8,0.2,3.7,0.4,5.5,0.6
			c8.1,0.7,16.8,0.3,23.8-4.5c1.6-1.1,0.1-3.7-1.5-2.6C67.6,98,60,98.4,52.9,98c-3.7-0.1-7.3-0.6-10.9-1.3c-1.7-0.3-3.2-1.4-4.1-2.9
			c-0.8-1.8-1.4-3.7-1.8-5.7c-2-8.1-2.1-16.5-1.5-24.8c0.3-4.3,0.9-8.5,1.5-12.8c0.5-3.4,1.7-7.3,0.4-10.6
			c-1.5-4.2-6.3-5.2-10.2-5.6c-4.6-0.5-9.3,0-13.6,1.6c-0.8,0.2-1.3,1.1-1,1.9c0.2,0.6,0.8,1.1,1.4,1.1c6.8,0.3,13.4,1.9,19.6,4.7
			l0.4-2.7c-12.4,3.6-17.8,16.7-21.6,27.9c-0.5,1.5,1.5,2.4,2.5,1.5l25.7-22.8c4.1-3.6,8.2-7.1,12.2-10.9c3.3-3.1,6.4-6.8,7.6-11.3
			s0.3-9.6-3.3-12.7v2.1c3.2-3,7.7-4.3,12-3.3l-1-1.9c-2.2,6-1,12.7,3.1,17.6c1.1,1.3,3.2-0.4,2.4-1.8c-1.3-2.2-5-1.8-5.6,0.8
			c-0.2,0.8,0.3,1.6,1.1,1.8c11.6,3.3,22.9,7.7,33.6,13.1l0.4-2.7c-1.3,0.3-2.7,0-3.7-0.8l0.4,1.5c1.4-5,1-10.4-1.1-15.1
			c-0.7-1.6-3.2-0.4-2.7,1.2c2.8,10.7,14.7,17.3,25.3,14.9c0.8-0.1,1.4-0.9,1.3-1.7c-0.1-0.8-0.9-1.4-1.7-1.3c-12,0.4-23.8,2.8-35,7
			c-2.8,1.2-5.7,2.1-8.6,2.9c-3,0.6-6.1,0.8-9.2,0.7c-5.9-0.1-11.9,0.3-17.8,1.2c-6.8,1.1-13.4,2.9-19.8,5.4c-0.8,0.2-1.3,1.1-1,1.9
			c0.1,0.3,0.3,0.6,0.6,0.8c3.4,2.1,7.7,1.8,10.7-0.8c0.5-0.5,0.6-1.2,0.2-1.8L36.5,48l-0.5,2c5.4-2.6,10.3-6.1,14.6-10.3
			c0.6-0.6,0.5-1.6-0.1-2.1c-0.1-0.1-0.1-0.1-0.2-0.2c-5.7-3-12-4.8-18.5-5.1c-6-0.3-12.9,0.4-18.3,3.2c-2.3,1.2-4.3,3.2-4.2,5.9
			c0,2.5,1.9,4.5,3.9,5.8c2.5,1.6,5.5,2.3,8.3,3.2L32,53.6L56.4,61v-2.9C38.1,62.2,20,67.4,2.3,73.4c-1.5,0.5-1.4,3,0.4,2.9
			c15.1-0.7,30.2-1.1,45.3-1.2l-0.4-2.9c-6.1,1-11.4,5-14.1,10.5c-0.4,0.9,0.1,2.4,1.3,2.2c8.4-1,16.8-2.8,24.9-5.4
			c4-1.3,7.9-2.7,11.7-4.4c3.4-1.4,6.9-2.9,9.7-5.3c2.6-2.1,3.9-5.4,3.4-8.7c-0.7-3.6-3.5-6.5-6-9.1C73,46.3,67.2,40.7,60.2,36.9
			c-7.6-4.2-16.9-6.1-25.3-3.2c-1.5,0.5-1.4,3.1,0.4,3c16.2-1.3,32.2-4,47.9-8.1c4.5-1.2,8.9-2.5,13.3-3.9l-1.2-2.7
			c-11.9,7.7-25.2,16.8-31,30.3c-1.6,3.7-2.5,7.6-2.6,11.6c0,0.7,0.5,1.3,1.1,1.4c5.1,0.9,11,1.3,15.9-1c4.5-2.1,6.4-7.5,4.3-12
			c0,0,0-0.1-0.1-0.1c-2.1-4.6-6.6-7.5-9.4-11.6c-1.7-2.3-2.3-5.3-1.6-8.1c0.9-3.6,3.3-6.5,5.5-9.4c3.8-5,7.9-11,5-17.5
			C81.4,3,79.2,1,76.5,0.2c-3.4-0.9-6.3,0.9-8.9,2.8c-10.2,7.5-21.5,17.5-22.9,31c-1.1,10.4,5.7,22.7,16.6,24.7
			c1.4,0.3,2.8,0.3,4.2,0.3c0.8,0,1.5-0.7,1.5-1.5S66.3,56,65.5,56c-6.8-0.3-12.4,5.4-13.9,11.8c-2,8.1,2.3,16.1,6.1,23l0.5-2
			l-4.5,2.8c-0.7,0.4-0.9,1.4-0.5,2.1c0.3,0.4,0.7,0.7,1.2,0.7c4.1,0.1,8.2-0.1,12.2-0.7c2.1-0.3,4.1-0.7,6.1-1.3
			c1.6-0.4,3-1.4,3.9-2.8c1.5-2.8,0.2-6.4-1.2-9c-1.7-2.8-4-5.2-6.8-6.9c-6.4-4.2-14.3-4.9-21.8-5.1c-7.6-0.3-15.1-0.1-22.6,0.6
			C16,69.8,7.9,71.8,0.7,76c-0.7,0.4-0.9,1.4-0.5,2.1c0.2,0.3,0.5,0.6,0.9,0.7l19,5c6.2,1.8,12.4,3.2,18.7,4.2
			c6.1,1,12.3,0.7,18.3-0.8c5.3-1.5,10.2-4,15.4-5.9c5.3-1.9,11.2-3.5,16.6-0.9l-0.7-0.9c1.6,6.5-1.6,13.2-7.6,16
			C74.7,98,67.6,96.2,63.4,91l-1.2,2.3l21-2.4c1.3-0.1,2.3-2.1,0.8-2.8C76.4,84.7,70.2,78,61.5,78c-3.6-0.1-7,1.5-9.3,4.1
			c-1.9,2.5-3,5.6-3.2,8.8c-0.2,3.8,0.2,7.6,1.2,11.3l1.5-1.9c-4.4,0.2-8.7,1.5-12.5,3.9c-0.7,0.4-0.9,1.4-0.5,2.1
			c0.2,0.3,0.5,0.5,0.8,0.6c9.1,3.3,19.1,3.5,28.4,0.5c0.8-0.2,1.3-1.1,1.1-1.8c-5.8-16.8-3.9-35.4,5.3-50.6
			c4-6.6,10.5-13.5,19-12.2c3.7,0.4,6.9,3,8,6.6c1.1,3.7,0.1,7.8-1.4,11.3c-3.7,8.8-10.6,16.4-18.5,21.7l2.2,1.7
			c1.2-6.7-4.3-12.3-10.4-14.1c-7.6-2.2-16,0.8-23.2,3.3c-4,1.2-7.7,3.2-11,5.7c-0.6,0.6-0.6,1.6,0,2.1c0.2,0.2,0.4,0.3,0.6,0.4
			c7.1,1.8,14.7,0.6,21-3.1c0.6-0.3,0.9-1,0.7-1.7c-3.8-10.6-13.9-18.1-25-19.2c-2.5-0.2-5.8-0.2-7.2,2.3c-1.3,2.3-0.5,5.7,0.3,8
			c3.9,11,15.2,17.5,26.7,15.6c0.8-0.2,1.3-1.1,1-1.9c0-0.1-0.1-0.2-0.1-0.3c-2.6-3.4-6.8-5-11-4.2c-1.9,0.3-1.1,3.2,0.8,2.9
			c7.2-1.1,14.1-3.1,20.7-6.1c0.7-0.4,0.9-1.4,0.5-2.1c-0.1-0.2-0.3-0.4-0.5-0.5L55.5,64l-6.2-3.7l-3-1.8c-0.9-0.5-1.7-1-2.5-1.6
			c-1.5-1.4,0.9-2.7,2-3.4c1.8-1,3.7-2,5.5-2.9c3.9-1.8,7.8-3.3,11.9-4.5c7.9-2.3,17.1-4.2,25.1-1.2c6.2,2.2,12.2,9.7,8.2,16.3
			c-1.8,2.8-4.7,4.6-8,4.8c-4,0.2-7.6-2.2-11.4-3.1c-8.3-2-17-0.4-25,2.3c-3.8,1.2-7.9,2.5-11.3,4.7c-2.9,1.8-5,4.8-4.5,8.3
			c0.2,1.6,1.1,3,2.4,3.9c0.8,0.5,1.7,0,2.5-0.3c1-0.4,2-0.7,3-1.1c3.7-1.4,7.4-3,11-4.8c14.5-6.9,27.9-16,39.7-27
			c1.4-1.3,2.8-2.7,4.2-4.1S98.3,41.2,97,42.5L97,42.5z"/>
	</g>
</g>
</svg>
